<svg width="152" height="40" viewBox="0 0 152 40" fill="none" xmlns="http://www.w3.org/2000/svg">
<path d="M55.7532 29.7525V30.2705H54.2258V34.6875H53.5274V30.2705H52V29.7525H55.7532Z" fill="url(#paint0_linear_613_2065)"/>
<path d="M57.146 31.6215C57.2841 31.3555 57.4863 31.1502 57.7523 31.0055C58.0184 30.8562 58.3357 30.7815 58.7041 30.7815V31.4745H58.4892C58.0952 31.4745 57.7728 31.5678 57.5221 31.7545C57.2713 31.9365 57.146 32.2398 57.146 32.6645V34.6875H56.4475V30.8445H57.146V31.6215Z" fill="url(#paint1_linear_613_2065)"/>
<path d="M63.1388 30.8445V34.6875H62.4403V33.7845C62.3329 34.0972 62.141 34.3375 61.8647 34.5055C61.5935 34.6688 61.2762 34.7505 60.9129 34.7505C60.4268 34.7505 60.0328 34.6082 59.7309 34.3235C59.429 34.0342 59.2781 33.6212 59.2781 33.0845V30.8445H59.9765V33.0215C59.9765 33.4042 60.084 33.7005 60.2989 33.9105C60.5138 34.1158 60.8055 34.2185 61.1739 34.2185C61.5577 34.2185 61.8647 34.1065 62.0949 33.8825C62.3252 33.6538 62.4403 33.3225 62.4403 32.8885V30.8445H63.1388Z" fill="url(#paint2_linear_613_2065)"/>
<path d="M65.5779 30.7955C66.0538 30.7955 66.435 30.9098 66.7215 31.1385C67.0132 31.3625 67.1897 31.6658 67.2511 32.0485H66.5833C66.5526 31.8198 66.4478 31.6332 66.2687 31.4885C66.0947 31.3392 65.8593 31.2645 65.5625 31.2645C65.3118 31.2645 65.1148 31.3205 64.9715 31.4325C64.8334 31.5398 64.7643 31.6868 64.7643 31.8735C64.7643 32.0135 64.8104 32.1278 64.9025 32.2165C64.9997 32.3005 65.1174 32.3658 65.2555 32.4125C65.3988 32.4545 65.5932 32.5012 65.8388 32.5525C66.151 32.6178 66.4017 32.6855 66.591 32.7555C66.7855 32.8208 66.9492 32.9282 67.0822 33.0775C67.2204 33.2268 67.2895 33.4275 67.2895 33.6795C67.2895 33.9922 67.159 34.2465 66.898 34.4425C66.6422 34.6385 66.2994 34.7365 65.8695 34.7365C65.3681 34.7365 64.9587 34.6268 64.6415 34.4075C64.3243 34.1882 64.1375 33.8825 64.0812 33.4905H64.7566C64.7822 33.7238 64.8922 33.9128 65.0867 34.0575C65.2862 34.2022 65.5472 34.2745 65.8695 34.2745C66.11 34.2745 66.2968 34.2185 66.4298 34.1065C66.568 33.9945 66.6371 33.8475 66.6371 33.6655C66.6371 33.5162 66.5885 33.3972 66.4912 33.3085C66.394 33.2198 66.2738 33.1522 66.1305 33.1055C65.9872 33.0588 65.7902 33.0098 65.5395 32.9585C65.2274 32.8932 64.9767 32.8278 64.7873 32.7625C64.6031 32.6972 64.4445 32.5945 64.3115 32.4545C64.1835 32.3098 64.1196 32.1162 64.1196 31.8735C64.1196 31.5515 64.2501 31.2925 64.511 31.0965C64.772 30.8958 65.1276 30.7955 65.5779 30.7955Z" fill="url(#paint3_linear_613_2065)"/>
<path d="M70.2337 34.1275V34.6875H69.7118C69.282 34.6875 68.9596 34.5942 68.7447 34.4075C68.5349 34.2208 68.43 33.9082 68.43 33.4695V31.3975H67.8007V30.8445H68.43V29.8855H69.1362V30.8445H70.2261V31.3975H69.1362V33.4835C69.1362 33.7308 69.1848 33.9012 69.282 33.9945C69.3843 34.0832 69.5583 34.1275 69.8039 34.1275H70.2337Z" fill="url(#paint4_linear_613_2065)"/>
<path d="M74.9621 32.5525C74.9621 32.6878 74.9518 32.8045 74.9314 32.9025H71.5619C71.5773 33.3412 71.7129 33.6702 71.9687 33.8895C72.2297 34.1088 72.5469 34.2185 72.9204 34.2185C73.2582 34.2185 73.5396 34.1415 73.7647 33.9875C73.995 33.8288 74.1357 33.6188 74.1869 33.3575H74.9314C74.8802 33.6235 74.7651 33.8615 74.586 34.0715C74.412 34.2815 74.1843 34.4448 73.9029 34.5615C73.6214 34.6782 73.3042 34.7365 72.9511 34.7365C72.5469 34.7365 72.1887 34.6572 71.8766 34.4985C71.5645 34.3398 71.3189 34.1135 71.1398 33.8195C70.9658 33.5208 70.8788 33.1708 70.8788 32.7695C70.8788 32.3682 70.9658 32.0182 71.1398 31.7195C71.3189 31.4208 71.5645 31.1922 71.8766 31.0335C72.1887 30.8748 72.5469 30.7955 72.9511 30.7955C73.3605 30.7955 73.7161 30.8748 74.018 31.0335C74.325 31.1922 74.5578 31.4045 74.7165 31.6705C74.8802 31.9365 74.9621 32.2305 74.9621 32.5525ZM74.2559 32.5945C74.2713 32.3098 74.2201 32.0718 74.1024 31.8805C73.9847 31.6892 73.8236 31.5468 73.6189 31.4535C73.4142 31.3602 73.1916 31.3135 72.9511 31.3135C72.5674 31.3135 72.245 31.4232 71.9841 31.6425C71.7231 31.8572 71.5824 32.1745 71.5619 32.5945H74.2559Z" fill="url(#paint5_linear_613_2065)"/>
<path d="M77.6025 30.7955C78.0119 30.7955 78.3573 30.8888 78.6387 31.0755C78.9253 31.2622 79.1248 31.5118 79.2374 31.8245V29.5075H79.9358V34.6875H79.2374V33.7075C79.1248 34.0202 78.9253 34.2698 78.6387 34.4565C78.3573 34.6432 78.0119 34.7365 77.6025 34.7365C77.229 34.7365 76.8964 34.6572 76.6048 34.4985C76.3131 34.3398 76.0828 34.1135 75.914 33.8195C75.7502 33.5208 75.6684 33.1708 75.6684 32.7695C75.6684 32.3682 75.7502 32.0182 75.914 31.7195C76.0828 31.4208 76.3131 31.1922 76.6048 31.0335C76.8964 30.8748 77.229 30.7955 77.6025 30.7955ZM77.8021 31.3625C77.3723 31.3625 77.0269 31.4885 76.7659 31.7405C76.5101 31.9878 76.3822 32.3308 76.3822 32.7695C76.3822 33.2082 76.5101 33.5535 76.7659 33.8055C77.0269 34.0528 77.3723 34.1765 77.8021 34.1765C78.0784 34.1765 78.324 34.1182 78.5389 34.0015C78.759 33.8848 78.9304 33.7215 79.0532 33.5115C79.176 33.2968 79.2374 33.0495 79.2374 32.7695C79.2374 32.4895 79.176 32.2422 79.0532 32.0275C78.9304 31.8128 78.759 31.6495 78.5389 31.5375C78.324 31.4208 78.0784 31.3625 77.8021 31.3625Z" fill="url(#paint6_linear_613_2065)"/>
<path d="M83.6422 30.2705V31.9575H85.6992V32.4475H83.6422V34.1695H85.9295V34.6875H82.9438V29.7525H85.9295V30.2705H83.6422Z" fill="url(#paint7_linear_613_2065)"/>
<path d="M88.6915 30.7955C89.2287 30.7955 89.6739 30.9262 90.027 31.1875C90.38 31.4488 90.5975 31.7988 90.6794 32.2375H89.9426C89.8914 31.9622 89.7507 31.7475 89.5204 31.5935C89.2953 31.4348 89.0138 31.3555 88.6761 31.3555C88.4305 31.3555 88.2054 31.4068 88.0007 31.5095C87.8011 31.6122 87.64 31.7708 87.5172 31.9855C87.3944 32.1955 87.333 32.4568 87.333 32.7695C87.333 33.0822 87.3944 33.3458 87.5172 33.5605C87.64 33.7705 87.8011 33.9268 88.0007 34.0295C88.2054 34.1322 88.4305 34.1835 88.6761 34.1835C89.0138 34.1835 89.2953 34.1042 89.5204 33.9455C89.7507 33.7868 89.8914 33.5698 89.9426 33.2945H90.6794C90.5975 33.7378 90.38 34.0902 90.027 34.3515C89.6739 34.6082 89.2287 34.7365 88.6915 34.7365C88.2872 34.7365 87.9291 34.6572 87.6169 34.4985C87.3048 34.3398 87.0592 34.1135 86.8801 33.8195C86.7061 33.5208 86.6191 33.1708 86.6191 32.7695C86.6191 32.3682 86.7061 32.0182 86.8801 31.7195C87.0592 31.4208 87.3048 31.1922 87.6169 31.0335C87.9291 30.8748 88.2872 30.7955 88.6915 30.7955Z" fill="url(#paint8_linear_613_2065)"/>
<path d="M93.5046 30.7955C93.9088 30.7955 94.2696 30.8748 94.5868 31.0335C94.9092 31.1922 95.1599 31.4208 95.339 31.7195C95.5232 32.0182 95.6153 32.3682 95.6153 32.7695C95.6153 33.1708 95.5232 33.5208 95.339 33.8195C95.1599 34.1135 94.9092 34.3398 94.5868 34.4985C94.2696 34.6572 93.9088 34.7365 93.5046 34.7365C93.1004 34.7365 92.7371 34.6572 92.4147 34.4985C92.0975 34.3398 91.8467 34.1135 91.6625 33.8195C91.4783 33.5208 91.3862 33.1708 91.3862 32.7695C91.3862 32.3682 91.4783 32.0182 91.6625 31.7195C91.8467 31.4208 92.0975 31.1922 92.4147 31.0335C92.7371 30.8748 93.1004 30.7955 93.5046 30.7955ZM93.5046 31.3555C93.2539 31.3555 93.0211 31.4068 92.8062 31.5095C92.5964 31.6122 92.4249 31.7708 92.2919 31.9855C92.164 32.1955 92.1 32.4568 92.1 32.7695C92.1 33.0775 92.164 33.3388 92.2919 33.5535C92.4249 33.7635 92.5964 33.9198 92.8062 34.0225C93.0211 34.1252 93.2539 34.1765 93.5046 34.1765C93.7553 34.1765 93.9856 34.1252 94.1954 34.0225C94.4103 33.9198 94.5817 33.7635 94.7096 33.5535C94.8427 33.3388 94.9092 33.0775 94.9092 32.7695C94.9092 32.4568 94.8427 32.1955 94.7096 31.9855C94.5817 31.7708 94.4103 31.6122 94.1954 31.5095C93.9856 31.4068 93.7553 31.3555 93.5046 31.3555Z" fill="url(#paint9_linear_613_2065)"/>
<path d="M101.706 30.7815C102.197 30.7815 102.591 30.9262 102.888 31.2155C103.19 31.5002 103.341 31.9132 103.341 32.4545V34.6875H102.643V32.5105C102.643 32.1325 102.54 31.8432 102.336 31.6425C102.136 31.4418 101.86 31.3415 101.507 31.3415C101.138 31.3415 100.841 31.4535 100.616 31.6775C100.396 31.8968 100.286 32.2212 100.286 32.6505V34.6875H99.5879V32.5105C99.5879 32.1325 99.4855 31.8432 99.2809 31.6425C99.0762 31.4418 98.7999 31.3415 98.4519 31.3415C98.0784 31.3415 97.7791 31.4535 97.5539 31.6775C97.3339 31.8968 97.2239 32.2212 97.2239 32.6505V34.6875H96.5254V30.8445H97.2239V31.7195C97.3262 31.4162 97.5079 31.1852 97.7688 31.0265C98.0349 30.8632 98.3394 30.7815 98.6822 30.7815C99.0404 30.7815 99.3499 30.8655 99.6109 31.0335C99.877 31.1968 100.066 31.4395 100.179 31.7615C100.297 31.4488 100.494 31.2085 100.77 31.0405C101.046 30.8678 101.358 30.7815 101.706 30.7815Z" fill="url(#paint10_linear_613_2065)"/>
<path d="M109.606 30.7815C110.098 30.7815 110.492 30.9262 110.788 31.2155C111.09 31.5002 111.241 31.9132 111.241 32.4545V34.6875H110.543V32.5105C110.543 32.1325 110.44 31.8432 110.236 31.6425C110.036 31.4418 109.76 31.3415 109.407 31.3415C109.038 31.3415 108.742 31.4535 108.517 31.6775C108.296 31.8968 108.186 32.2212 108.186 32.6505V34.6875H107.488V32.5105C107.488 32.1325 107.386 31.8432 107.181 31.6425C106.976 31.4418 106.7 31.3415 106.352 31.3415C105.979 31.3415 105.679 31.4535 105.454 31.6775C105.234 31.8968 105.124 32.2212 105.124 32.6505V34.6875H104.426V30.8445H105.124V31.7195C105.226 31.4162 105.408 31.1852 105.669 31.0265C105.935 30.8632 106.24 30.7815 106.582 30.7815C106.941 30.7815 107.25 30.8655 107.511 31.0335C107.777 31.1968 107.966 31.4395 108.079 31.7615C108.197 31.4488 108.394 31.2085 108.67 31.0405C108.946 30.8678 109.258 30.7815 109.606 30.7815Z" fill="url(#paint11_linear_613_2065)"/>
<path d="M116.202 32.5525C116.202 32.6878 116.192 32.8045 116.171 32.9025H112.802C112.817 33.3412 112.953 33.6702 113.208 33.8895C113.469 34.1088 113.787 34.2185 114.16 34.2185C114.498 34.2185 114.779 34.1415 115.004 33.9875C115.235 33.8288 115.375 33.6188 115.427 33.3575H116.171C116.12 33.6235 116.005 33.8615 115.826 34.0715C115.652 34.2815 115.424 34.4448 115.143 34.5615C114.861 34.6782 114.544 34.7365 114.191 34.7365C113.787 34.7365 113.428 34.6572 113.116 34.4985C112.804 34.3398 112.559 34.1135 112.379 33.8195C112.205 33.5208 112.118 33.1708 112.118 32.7695C112.118 32.3682 112.205 32.0182 112.379 31.7195C112.559 31.4208 112.804 31.1922 113.116 31.0335C113.428 30.8748 113.787 30.7955 114.191 30.7955C114.6 30.7955 114.956 30.8748 115.258 31.0335C115.565 31.1922 115.798 31.4045 115.956 31.6705C116.12 31.9365 116.202 32.2305 116.202 32.5525ZM115.496 32.5945C115.511 32.3098 115.46 32.0718 115.342 31.8805C115.224 31.6892 115.063 31.5468 114.859 31.4535C114.654 31.3602 114.431 31.3135 114.191 31.3135C113.807 31.3135 113.485 31.4232 113.224 31.6425C112.963 31.8572 112.822 32.1745 112.802 32.5945H115.496Z" fill="url(#paint12_linear_613_2065)"/>
<path d="M117.814 31.6215C117.952 31.3555 118.154 31.1502 118.42 31.0055C118.686 30.8562 119.003 30.7815 119.372 30.7815V31.4745H119.157C118.763 31.4745 118.441 31.5678 118.19 31.7545C117.939 31.9365 117.814 32.2398 117.814 32.6645V34.6875H117.115V30.8445H117.814V31.6215Z" fill="url(#paint13_linear_613_2065)"/>
<path d="M121.926 30.7955C122.463 30.7955 122.909 30.9262 123.262 31.1875C123.615 31.4488 123.832 31.7988 123.914 32.2375H123.177C123.126 31.9622 122.985 31.7475 122.755 31.5935C122.53 31.4348 122.248 31.3555 121.911 31.3555C121.665 31.3555 121.44 31.4068 121.235 31.5095C121.036 31.6122 120.875 31.7708 120.752 31.9855C120.629 32.1955 120.568 32.4568 120.568 32.7695C120.568 33.0822 120.629 33.3458 120.752 33.5605C120.875 33.7705 121.036 33.9268 121.235 34.0295C121.44 34.1322 121.665 34.1835 121.911 34.1835C122.248 34.1835 122.53 34.1042 122.755 33.9455C122.985 33.7868 123.126 33.5698 123.177 33.2945H123.914C123.832 33.7378 123.615 34.0902 123.262 34.3515C122.909 34.6082 122.463 34.7365 121.926 34.7365C121.522 34.7365 121.164 34.6572 120.852 34.4985C120.539 34.3398 120.294 34.1135 120.115 33.8195C119.941 33.5208 119.854 33.1708 119.854 32.7695C119.854 32.3682 119.941 32.0182 120.115 31.7195C120.294 31.4208 120.539 31.1922 120.852 31.0335C121.164 30.8748 121.522 30.7955 121.926 30.7955Z" fill="url(#paint14_linear_613_2065)"/>
<path d="M128.704 32.5525C128.704 32.6878 128.694 32.8045 128.673 32.9025H125.304C125.319 33.3412 125.455 33.6702 125.711 33.8895C125.972 34.1088 126.289 34.2185 126.662 34.2185C127 34.2185 127.282 34.1415 127.507 33.9875C127.737 33.8288 127.878 33.6188 127.929 33.3575H128.673C128.622 33.6235 128.507 33.8615 128.328 34.0715C128.154 34.2815 127.926 34.4448 127.645 34.5615C127.363 34.6782 127.046 34.7365 126.693 34.7365C126.289 34.7365 125.931 34.6572 125.619 34.4985C125.306 34.3398 125.061 34.1135 124.882 33.8195C124.708 33.5208 124.621 33.1708 124.621 32.7695C124.621 32.3682 124.708 32.0182 124.882 31.7195C125.061 31.4208 125.306 31.1922 125.619 31.0335C125.931 30.8748 126.289 30.7955 126.693 30.7955C127.102 30.7955 127.458 30.8748 127.76 31.0335C128.067 31.1922 128.3 31.4045 128.458 31.6705C128.622 31.9365 128.704 32.2305 128.704 32.5525ZM127.998 32.5945C128.013 32.3098 127.962 32.0718 127.844 31.8805C127.727 31.6892 127.566 31.5468 127.361 31.4535C127.156 31.3602 126.934 31.3135 126.693 31.3135C126.309 31.3135 125.987 31.4232 125.726 31.6425C125.465 31.8572 125.324 32.1745 125.304 32.5945H127.998Z" fill="url(#paint15_linear_613_2065)"/>
<path d="M134.937 33.4065C134.937 33.6398 134.876 33.8568 134.753 34.0575C134.63 34.2582 134.443 34.4215 134.193 34.5475C133.942 34.6735 133.632 34.7365 133.264 34.7365C132.906 34.7365 132.586 34.6782 132.305 34.5615C132.028 34.4402 131.806 34.2768 131.637 34.0715C131.473 33.8615 131.378 33.6235 131.353 33.3575H132.097C132.113 33.4975 132.164 33.6352 132.251 33.7705C132.343 33.9012 132.471 34.0108 132.635 34.0995C132.803 34.1835 133.006 34.2255 133.241 34.2255C133.548 34.2255 133.783 34.1508 133.947 34.0015C134.111 33.8522 134.193 33.6608 134.193 33.4275C134.193 33.2268 134.134 33.0635 134.016 32.9375C133.904 32.8115 133.763 32.7135 133.594 32.6435C133.425 32.5688 133.195 32.4895 132.903 32.4055C132.56 32.3028 132.284 32.2072 132.074 32.1185C131.87 32.0252 131.693 31.8875 131.545 31.7055C131.401 31.5235 131.33 31.2832 131.33 30.9845C131.33 30.7278 131.396 30.5015 131.529 30.3055C131.667 30.1095 131.862 29.9578 132.113 29.8505C132.368 29.7432 132.668 29.6895 133.011 29.6895C133.543 29.6895 133.965 29.8085 134.277 30.0465C134.589 30.2798 134.771 30.5785 134.822 30.9425H134.07C134.029 30.7465 133.919 30.5738 133.74 30.4245C133.561 30.2752 133.318 30.2005 133.011 30.2005C132.729 30.2005 132.504 30.2682 132.335 30.4035C132.166 30.5342 132.082 30.7208 132.082 30.9635C132.082 31.1548 132.136 31.3112 132.243 31.4325C132.356 31.5492 132.494 31.6425 132.658 31.7125C132.821 31.7778 133.046 31.8525 133.333 31.9365C133.681 32.0392 133.96 32.1372 134.17 32.2305C134.385 32.3238 134.566 32.4662 134.715 32.6575C134.863 32.8442 134.937 33.0938 134.937 33.4065Z" fill="url(#paint16_linear_613_2065)"/>
<path d="M138.094 30.7815C138.586 30.7815 138.982 30.9262 139.284 31.2155C139.586 31.5002 139.737 31.9132 139.737 32.4545V34.6875H139.038V32.5105C139.038 32.1278 138.931 31.8338 138.716 31.6285C138.501 31.4232 138.21 31.3205 137.841 31.3205C137.457 31.3205 137.15 31.4348 136.92 31.6635C136.69 31.8875 136.575 32.2165 136.575 32.6505V34.6875H135.876V29.5075H136.575V31.7545C136.682 31.4418 136.871 31.2015 137.143 31.0335C137.419 30.8655 137.736 30.7815 138.094 30.7815Z" fill="url(#paint17_linear_613_2065)"/>
<path d="M142.719 30.7955C143.124 30.7955 143.484 30.8748 143.802 31.0335C144.124 31.1922 144.375 31.4208 144.554 31.7195C144.738 32.0182 144.83 32.3682 144.83 32.7695C144.83 33.1708 144.738 33.5208 144.554 33.8195C144.375 34.1135 144.124 34.3398 143.802 34.4985C143.484 34.6572 143.124 34.7365 142.719 34.7365C142.315 34.7365 141.952 34.6572 141.63 34.4985C141.312 34.3398 141.062 34.1135 140.877 33.8195C140.693 33.5208 140.601 33.1708 140.601 32.7695C140.601 32.3682 140.693 32.0182 140.877 31.7195C141.062 31.4208 141.312 31.1922 141.63 31.0335C141.952 30.8748 142.315 30.7955 142.719 30.7955ZM142.719 31.3555C142.469 31.3555 142.236 31.4068 142.021 31.5095C141.811 31.6122 141.64 31.7708 141.507 31.9855C141.379 32.1955 141.315 32.4568 141.315 32.7695C141.315 33.0775 141.379 33.3388 141.507 33.5535C141.64 33.7635 141.811 33.9198 142.021 34.0225C142.236 34.1252 142.469 34.1765 142.719 34.1765C142.97 34.1765 143.2 34.1252 143.41 34.0225C143.625 33.9198 143.796 33.7635 143.924 33.5535C144.057 33.3388 144.124 33.0775 144.124 32.7695C144.124 32.4568 144.057 32.1955 143.924 31.9855C143.796 31.7708 143.625 31.6122 143.41 31.5095C143.2 31.4068 142.97 31.3555 142.719 31.3555Z" fill="url(#paint18_linear_613_2065)"/>
<path d="M148.066 30.7955C148.439 30.7955 148.772 30.8748 149.064 31.0335C149.355 31.1922 149.583 31.4208 149.747 31.7195C149.916 32.0182 150 32.3682 150 32.7695C150 33.1708 149.916 33.5208 149.747 33.8195C149.583 34.1135 149.355 34.3398 149.064 34.4985C148.772 34.6572 148.439 34.7365 148.066 34.7365C147.656 34.7365 147.309 34.6432 147.022 34.4565C146.741 34.2652 146.546 34.0155 146.439 33.7075V36.5075H145.74V30.8445H146.439V31.8245C146.546 31.5165 146.741 31.2692 147.022 31.0825C147.309 30.8912 147.656 30.7955 148.066 30.7955ZM147.866 31.3625C147.595 31.3625 147.349 31.4208 147.129 31.5375C146.909 31.6495 146.738 31.8128 146.615 32.0275C146.492 32.2422 146.431 32.4895 146.431 32.7695C146.431 33.0495 146.492 33.2968 146.615 33.5115C146.738 33.7215 146.909 33.8848 147.129 34.0015C147.349 34.1182 147.595 34.1765 147.866 34.1765C148.301 34.1765 148.647 34.0528 148.902 33.8055C149.163 33.5535 149.294 33.2082 149.294 32.7695C149.294 32.3308 149.163 31.9878 148.902 31.7405C148.647 31.4885 148.301 31.3625 147.866 31.3625Z" fill="url(#paint19_linear_613_2065)"/>
<path d="M54.5422 14.2692L52.9928 18.9624H51L56.0714 4.03906H58.3956L63.4873 18.9624H61.4274L59.8332 14.2692H54.5422ZM59.4346 12.7645L57.9726 8.4699C57.6412 7.49589 57.4195 6.60932 57.1979 5.74714H57.1531C56.9315 6.63372 56.6875 7.54062 56.4008 8.44956L54.9387 12.7665H59.4326L59.4346 12.7645Z" fill="#F84B00"/>
<path d="M65.5449 3.24194H67.4929V18.9623H65.5449V3.24194Z" fill="#F84B00"/>
<path d="M72.9386 5.23474C72.9609 5.89967 72.4729 6.4304 71.6982 6.4304C71.0109 6.4304 70.5249 5.89967 70.5249 5.23474C70.5249 4.56981 71.0333 4.01672 71.7429 4.01672C72.4526 4.01672 72.9386 4.54745 72.9386 5.23474ZM70.7689 18.9624V8.24624H72.7169V18.9624H70.7689Z" fill="#F84B00"/>
<path d="M76.1488 18.9624V9.72861H74.644V8.24623H76.1488V7.73788C76.1488 6.23314 76.4802 4.85855 77.3892 3.99638C78.1192 3.28875 79.0932 3 80.0021 3C80.6894 3 81.2872 3.15455 81.6634 3.31112L81.397 4.81585C81.1083 4.68367 80.7097 4.57183 80.1567 4.57183C78.4953 4.57183 78.0744 6.03386 78.0744 7.67077V8.24623H80.665V9.72861H78.0744V18.9624H76.1488Z" fill="#F84B00"/>
<path d="M88.3482 18.9624L88.1937 17.6122H88.1266C87.5287 18.454 86.3778 19.2064 84.8487 19.2064C82.679 19.2064 81.5708 17.6793 81.5708 16.1298C81.5708 13.5392 83.8726 12.1219 88.0147 12.1443V11.9226C88.0147 11.0361 87.7707 9.44187 85.5787 9.44187C84.5823 9.44187 83.5412 9.75094 82.7888 10.239L82.3455 8.95385C83.2321 8.37839 84.5152 8.0022 85.8654 8.0022C89.1433 8.0022 89.9404 10.239 89.9404 12.3863V16.3941C89.9404 17.3234 89.9851 18.2324 90.1173 18.9624H88.3462H88.3482ZM88.0595 13.4945C85.9345 13.4497 83.5209 13.8259 83.5209 15.9082C83.5209 17.1709 84.3627 17.7687 85.3591 17.7687C86.754 17.7687 87.6406 16.8822 87.9497 15.9753C88.0168 15.776 88.0595 15.5543 88.0595 15.3551V13.4945Z" fill="#F84B00"/>
<path d="M105.907 11.3452C105.907 16.4816 102.785 19.2043 98.9768 19.2043C95.1682 19.2043 92.2686 16.1481 92.2686 11.6319C92.2686 6.894 95.213 3.79303 99.1985 3.79303C103.184 3.79303 105.907 6.91434 105.907 11.3431V11.3452ZM94.3264 11.5892C94.3264 14.7776 96.0528 17.6345 99.0866 17.6345C102.12 17.6345 103.869 14.8223 103.869 11.4346C103.869 8.46786 102.32 5.36893 99.109 5.36893C95.8982 5.36893 94.3264 8.31333 94.3264 11.5912V11.5892Z" fill="#E20B8C"/>
<path d="M108.34 11.1459C108.34 10.0397 108.318 9.13075 108.251 8.24621H109.977L110.087 10.0173H110.132C110.663 8.99858 111.903 8.0022 113.674 8.0022C115.156 8.0022 117.46 8.88878 117.46 12.5632V18.9624H115.512V12.7848C115.512 11.0584 114.87 9.61877 113.032 9.61877C111.746 9.61877 110.752 10.5257 110.419 11.6115C110.329 11.8555 110.286 12.187 110.286 12.5184V18.9624H108.338V11.1459H108.34Z" fill="#E20B8C"/>
<path d="M120.629 3.24194H122.577V18.9623H120.629V3.24194Z" fill="#E20B8C"/>
<path d="M128.023 5.23474C128.045 5.89967 127.557 6.4304 126.782 6.4304C126.095 6.4304 125.609 5.89967 125.609 5.23474C125.609 4.56981 126.117 4.01672 126.827 4.01672C127.537 4.01672 128.023 4.54745 128.023 5.23474ZM125.853 18.9624V8.24624H127.801V18.9624H125.853Z" fill="#E20B8C"/>
<path d="M131.034 11.1459C131.034 10.0397 131.011 9.13075 130.944 8.24621H132.671L132.781 10.0173H132.825C133.356 8.99858 134.596 8.0022 136.367 8.0022C137.852 8.0022 140.154 8.88878 140.154 12.5632V18.9624H138.206V12.7848C138.206 11.0584 137.563 9.61877 135.725 9.61877C134.44 9.61877 133.443 10.5257 133.112 11.6115C133.022 11.8555 132.98 12.187 132.98 12.5184V18.9624H131.032V11.1459H131.034Z" fill="#E20B8C"/>
<path d="M144.405 13.9581C144.45 16.5934 146.131 17.6772 148.081 17.6772C149.476 17.6772 150.318 17.4332 151.048 17.1241L151.38 18.5191C150.692 18.8282 149.519 19.184 147.815 19.184C144.517 19.184 142.544 17.0143 142.544 13.7812C142.544 10.5481 144.448 8.0022 147.571 8.0022C151.069 8.0022 152 11.0788 152 13.0512C152 13.4497 151.955 13.7588 151.933 13.9581H144.405ZM150.117 12.5632C150.139 11.3228 149.609 9.39714 147.417 9.39714C145.446 9.39714 144.582 11.213 144.427 12.5632H150.117Z" fill="#E20B8C"/>
<path d="M24.1431 13.1428L20.9585 7.11526L20.9444 7.08859C20.8294 6.86969 20.6512 6.68096 20.4189 6.55326C19.7854 6.20316 18.989 6.43399 18.6389 7.06755L7.23775 27.7356C6.88834 28.3692 7.11917 29.1662 7.75203 29.5156C8.38558 29.865 9.18261 29.6349 9.53131 29.0013L19.6914 10.5826L20.8918 13.1428H24.1431Z" fill="url(#paint20_linear_613_2065)"/>
<path d="M31.4955 27.0572L23.4094 11.755H20.2402L28.1888 28.7052C28.2 28.7291 28.2155 28.76 28.2281 28.7838C28.7045 29.6861 29.8228 30.0306 30.7251 29.5542C31.6274 29.0778 31.9719 27.9594 31.4948 27.0579L31.4955 27.0572Z" fill="url(#paint21_linear_613_2065)"/>
<path style="mix-blend-mode:multiply" d="M25.3427 15.4139C24.2468 15.3143 23.1193 15.3332 21.9834 15.4707L23.1726 18.0064C24.4573 17.9334 25.7125 18.0386 26.8814 18.3242L25.3434 15.4146L25.3427 15.4139Z" fill="url(#paint22_linear_613_2065)"/>
<path style="mix-blend-mode:multiply" d="M9.60064 23.4523L8.29494 25.8202C7.86906 26.6952 7.47055 27.6283 7.1001 28.6197C7.17166 28.9866 7.39898 29.3213 7.7526 29.5156C8.38615 29.865 9.18318 29.6349 9.53188 29.0014L10.6341 27.0039C11.0081 26.2335 11.4045 25.515 11.8233 24.8485L15.9734 17.3237C13.4525 18.6505 11.3399 20.6788 9.60064 23.453V23.4523Z" fill="url(#paint23_linear_613_2065)"/>
<g style="mix-blend-mode:multiply">
<path d="M23.9049 19.5675C25.3095 19.6054 26.6679 19.8418 27.909 20.2684L26.2616 17.1519C25.1033 16.9603 23.9014 16.893 22.6792 16.954L23.9049 19.5675Z" fill="#B1B3B5"/>
</g>
<path d="M39.9433 18.6996C39.9328 18.588 39.6423 14.2093 37.7199 10.81C37.0414 9.53514 34.8959 5.9036 30.7992 3.19958L28.606 6.21652C33.0921 9.15837 34.7444 13.507 34.7872 13.622C36.1714 16.8073 36.0395 20.1688 36.0395 20.1688C36.0395 20.1751 36.0395 20.1912 36.0395 20.1968C36.0781 21.2899 36.9944 22.1459 38.0875 22.1073C39.1799 22.0701 40.0359 21.1531 39.998 20.06C39.998 20.06 39.9475 18.755 39.9419 18.6996H39.9433Z" fill="url(#paint24_linear_613_2065)"/>
<path d="M31.571 3.73629C28.4973 1.48903 24.1978 -0.300782 18.4221 0.0423064C18.2334 0.0598467 7.07425 0.388902 1.7006 11.7859C0.23213 15.0975 -0.108151 18.2421 0.0272598 20.8542H3.14312C3.03647 18.2021 3.53462 14.8667 5.63314 11.3579C5.98184 10.7805 9.86386 4.16568 18.667 3.57071C23.2422 3.44162 26.6464 4.80415 29.1168 6.56519L31.571 3.73629Z" fill="url(#paint25_linear_613_2065)"/>
<path d="M33.7474 26.2749C33.9811 29.5563 31.5626 32.9563 27.6041 34.9664C27.5066 35.0099 22.8837 37.6922 17.1087 36.7142C8.95528 35.3327 5.42197 28.9649 4.44252 26.6095C4.40673 26.5211 3.11787 23.9238 3.1298 20.1295H0.00341797C0.0749824 24.591 1.59888 27.6963 1.64519 27.8086C2.84144 30.5722 6.98165 37.8529 16.6702 39.4638C22.3077 40.3204 29.8591 38.4001 34.3291 32.6946C35.7267 30.9097 36.4662 28.5186 36.3673 26.2749H33.7474Z" fill="url(#paint26_linear_613_2065)"/>
<path d="M36.1867 24.859C35.6514 22.3957 34.0391 20.2109 31.6473 18.708C28.2971 16.6018 23.8573 15.9949 19.4673 17.0424C14.5617 18.2134 10.5618 21.7109 7.23823 27.7356C6.88883 28.3692 7.11966 29.1662 7.75251 29.5156C8.38607 29.865 9.1831 29.6349 9.5318 29.0014C12.4793 23.6586 15.9277 20.5806 20.0749 19.5906C23.731 18.7192 27.5359 19.2181 30.2525 20.9265C32.0697 22.068 33.2365 23.6207 33.6273 25.4161C33.7416 25.9423 33.7823 26.4756 33.7571 27.0088H36.3706C36.3965 26.277 36.3383 25.5515 36.1874 24.859H36.1867Z" fill="url(#paint27_linear_613_2065)"/>
<path style="mix-blend-mode:multiply" d="M33.3608 24.5222C33.3608 24.5222 33.3608 24.5243 33.3608 24.525C33.471 24.8148 33.5615 25.1116 33.6274 25.4161C34.2848 28.4407 32.5568 31.6815 29.3462 33.9238L30.3453 36.3661C30.3453 36.3661 30.3481 36.3647 30.3502 36.3633C36.1132 30.3807 33.3615 24.5229 33.3615 24.5229L33.3608 24.5222Z" fill="url(#paint28_linear_613_2065)"/>
<path style="mix-blend-mode:multiply" d="M4.618 27.0095L1.74561 28.0359C7.07365 37.5568 19.3925 36.926 19.3925 36.926C19.3897 36.926 19.3876 36.9253 19.3848 36.9246C18.6523 36.9113 17.8911 36.8468 17.1088 36.7149C9.37774 35.4049 5.80233 29.6145 4.6173 27.0102L4.618 27.0095Z" fill="url(#paint29_linear_613_2065)"/>
<path style="mix-blend-mode:multiply" d="M6.00439 10.7742C7.19503 9.01031 11.1241 4.08079 18.6678 3.57071C21.5086 3.49073 23.8983 3.98607 25.893 4.79433L27.1461 1.31573H27.1447C13.2352 -0.56248 6.07736 10.6591 6.00439 10.7742Z" fill="url(#paint30_linear_613_2065)"/>
<path style="mix-blend-mode:multiply" d="M39.9995 20.06C39.9995 20.06 39.9848 19.6769 39.9701 19.317C37.8386 13.3448 31.1606 8.29184 31.1494 8.28271C33.7363 10.8527 34.7543 13.5322 34.788 13.622C36.1723 16.8073 36.0403 20.1687 36.0403 20.1687C36.0403 20.175 36.0403 20.1912 36.0403 20.1968C36.0789 21.2899 36.9952 22.1459 38.0884 22.1073C39.1808 22.0701 40.0367 21.1531 39.9988 20.06H39.9995Z" fill="url(#paint31_linear_613_2065)"/>
<path style="mix-blend-mode:multiply" d="M5.63278 11.3579C5.76819 11.1327 6.44174 9.98977 7.73411 8.64407L5.7296 5.93866C5.7296 5.93866 5.7296 5.94006 5.7282 5.94006C0.0984659 13.4508 3.60302 24.1385 3.60512 24.1434C2.92596 21.3636 2.52674 16.5519 5.63278 11.3579Z" fill="url(#paint32_linear_613_2065)"/>
<defs>
<linearGradient id="paint0_linear_613_2065" x1="80.3856" y1="31.6875" x2="125.868" y2="34.0909" gradientUnits="userSpaceOnUse">
<stop stop-color="#982E00"/>
<stop offset="1" stop-color="#F03432"/>
</linearGradient>
<linearGradient id="paint1_linear_613_2065" x1="80.3856" y1="31.6875" x2="125.868" y2="34.0909" gradientUnits="userSpaceOnUse">
<stop stop-color="#982E00"/>
<stop offset="1" stop-color="#F03432"/>
</linearGradient>
<linearGradient id="paint2_linear_613_2065" x1="80.3856" y1="31.6875" x2="125.868" y2="34.0909" gradientUnits="userSpaceOnUse">
<stop stop-color="#982E00"/>
<stop offset="1" stop-color="#F03432"/>
</linearGradient>
<linearGradient id="paint3_linear_613_2065" x1="80.3856" y1="31.6875" x2="125.868" y2="34.0909" gradientUnits="userSpaceOnUse">
<stop stop-color="#982E00"/>
<stop offset="1" stop-color="#F03432"/>
</linearGradient>
<linearGradient id="paint4_linear_613_2065" x1="80.3856" y1="31.6875" x2="125.868" y2="34.0909" gradientUnits="userSpaceOnUse">
<stop stop-color="#982E00"/>
<stop offset="1" stop-color="#F03432"/>
</linearGradient>
<linearGradient id="paint5_linear_613_2065" x1="80.3856" y1="31.6875" x2="125.868" y2="34.0909" gradientUnits="userSpaceOnUse">
<stop stop-color="#982E00"/>
<stop offset="1" stop-color="#F03432"/>
</linearGradient>
<linearGradient id="paint6_linear_613_2065" x1="80.3856" y1="31.6875" x2="125.868" y2="34.0909" gradientUnits="userSpaceOnUse">
<stop stop-color="#982E00"/>
<stop offset="1" stop-color="#F03432"/>
</linearGradient>
<linearGradient id="paint7_linear_613_2065" x1="80.3856" y1="31.6875" x2="125.868" y2="34.0909" gradientUnits="userSpaceOnUse">
<stop stop-color="#982E00"/>
<stop offset="1" stop-color="#F03432"/>
</linearGradient>
<linearGradient id="paint8_linear_613_2065" x1="80.3856" y1="31.6875" x2="125.868" y2="34.0909" gradientUnits="userSpaceOnUse">
<stop stop-color="#982E00"/>
<stop offset="1" stop-color="#F03432"/>
</linearGradient>
<linearGradient id="paint9_linear_613_2065" x1="80.3856" y1="31.6875" x2="125.868" y2="34.0909" gradientUnits="userSpaceOnUse">
<stop stop-color="#982E00"/>
<stop offset="1" stop-color="#F03432"/>
</linearGradient>
<linearGradient id="paint10_linear_613_2065" x1="80.3856" y1="31.6875" x2="125.868" y2="34.0909" gradientUnits="userSpaceOnUse">
<stop stop-color="#982E00"/>
<stop offset="1" stop-color="#F03432"/>
</linearGradient>
<linearGradient id="paint11_linear_613_2065" x1="80.3856" y1="31.6875" x2="125.868" y2="34.0909" gradientUnits="userSpaceOnUse">
<stop stop-color="#982E00"/>
<stop offset="1" stop-color="#F03432"/>
</linearGradient>
<linearGradient id="paint12_linear_613_2065" x1="80.3856" y1="31.6875" x2="125.868" y2="34.0909" gradientUnits="userSpaceOnUse">
<stop stop-color="#982E00"/>
<stop offset="1" stop-color="#F03432"/>
</linearGradient>
<linearGradient id="paint13_linear_613_2065" x1="80.3856" y1="31.6875" x2="125.868" y2="34.0909" gradientUnits="userSpaceOnUse">
<stop stop-color="#982E00"/>
<stop offset="1" stop-color="#F03432"/>
</linearGradient>
<linearGradient id="paint14_linear_613_2065" x1="80.3856" y1="31.6875" x2="125.868" y2="34.0909" gradientUnits="userSpaceOnUse">
<stop stop-color="#982E00"/>
<stop offset="1" stop-color="#F03432"/>
</linearGradient>
<linearGradient id="paint15_linear_613_2065" x1="80.3856" y1="31.6875" x2="125.868" y2="34.0909" gradientUnits="userSpaceOnUse">
<stop stop-color="#982E00"/>
<stop offset="1" stop-color="#F03432"/>
</linearGradient>
<linearGradient id="paint16_linear_613_2065" x1="80.3856" y1="31.6875" x2="125.868" y2="34.0909" gradientUnits="userSpaceOnUse">
<stop stop-color="#982E00"/>
<stop offset="1" stop-color="#F03432"/>
</linearGradient>
<linearGradient id="paint17_linear_613_2065" x1="80.3856" y1="31.6875" x2="125.868" y2="34.0909" gradientUnits="userSpaceOnUse">
<stop stop-color="#982E00"/>
<stop offset="1" stop-color="#F03432"/>
</linearGradient>
<linearGradient id="paint18_linear_613_2065" x1="80.3856" y1="31.6875" x2="125.868" y2="34.0909" gradientUnits="userSpaceOnUse">
<stop stop-color="#982E00"/>
<stop offset="1" stop-color="#F03432"/>
</linearGradient>
<linearGradient id="paint19_linear_613_2065" x1="80.3856" y1="31.6875" x2="125.868" y2="34.0909" gradientUnits="userSpaceOnUse">
<stop stop-color="#982E00"/>
<stop offset="1" stop-color="#F03432"/>
</linearGradient>
<linearGradient id="paint20_linear_613_2065" x1="11.9491" y1="29.3676" x2="19.2557" y2="11.9122" gradientUnits="userSpaceOnUse">
<stop stop-color="#E62314"/>
<stop offset="0.53" stop-color="#EC6616"/>
<stop offset="1" stop-color="#F19E18"/>
</linearGradient>
<linearGradient id="paint21_linear_613_2065" x1="30.0523" y1="28.3088" x2="21.1215" y2="10.0417" gradientUnits="userSpaceOnUse">
<stop stop-color="#E62314"/>
<stop offset="0.53" stop-color="#EC6616"/>
<stop offset="1" stop-color="#F19E18"/>
</linearGradient>
<linearGradient id="paint22_linear_613_2065" x1="24.432" y1="18.3235" x2="24.432" y2="15.3515" gradientUnits="userSpaceOnUse">
<stop offset="0.43" stop-color="#9C9EA1"/>
<stop offset="0.94" stop-color="#9C9EA1"/>
</linearGradient>
<linearGradient id="paint23_linear_613_2065" x1="11.5364" y1="29.6791" x2="11.5364" y2="17.323" gradientUnits="userSpaceOnUse">
<stop offset="0.29" stop-color="#9C9EA1"/>
<stop offset="1" stop-color="#9C9EA1"/>
</linearGradient>
<linearGradient id="paint24_linear_613_2065" x1="37.2042" y1="16.0124" x2="28.0026" y2="3.96995" gradientUnits="userSpaceOnUse">
<stop stop-color="#F84B00"/>
<stop offset="0.58" stop-color="#EA2454"/>
<stop offset="1" stop-color="#E20B8C"/>
</linearGradient>
<linearGradient id="paint25_linear_613_2065" x1="-4.17399" y1="19.8628" x2="25.0538" y2="1.05474" gradientUnits="userSpaceOnUse">
<stop stop-color="#F84B00"/>
<stop offset="0.58" stop-color="#EA2454"/>
<stop offset="1" stop-color="#E20B8C"/>
</linearGradient>
<linearGradient id="paint26_linear_613_2065" x1="3.95139" y1="29.3199" x2="34.802" y2="31.8906" gradientUnits="userSpaceOnUse">
<stop stop-color="#F84B00"/>
<stop offset="0.58" stop-color="#EA2454"/>
<stop offset="1" stop-color="#E20B8C"/>
</linearGradient>
<linearGradient id="paint27_linear_613_2065" x1="1.00231" y1="24.0697" x2="34.2889" y2="21.9046" gradientUnits="userSpaceOnUse">
<stop stop-color="#F84B00"/>
<stop offset="0.58" stop-color="#EA2454"/>
<stop offset="1" stop-color="#E20B8C"/>
</linearGradient>
<linearGradient id="paint28_linear_613_2065" x1="28.138" y1="34.1596" x2="35.5681" y2="26.7295" gradientUnits="userSpaceOnUse">
<stop offset="0.1" stop-color="#9C9EA1"/>
<stop offset="1" stop-color="#9C9EA1"/>
</linearGradient>
<linearGradient id="paint29_linear_613_2065" x1="5.54483" y1="25.3754" x2="15.5274" y2="39.6322" gradientUnits="userSpaceOnUse">
<stop offset="0.1" stop-color="#9C9EA1"/>
<stop offset="1" stop-color="#9C9EA1"/>
</linearGradient>
<linearGradient id="paint30_linear_613_2065" x1="6.00439" y1="5.93865" x2="27.1454" y2="5.93865" gradientUnits="userSpaceOnUse">
<stop stop-color="#9C9EA1"/>
<stop offset="0.9" stop-color="#9C9EA1"/>
</linearGradient>
<linearGradient id="paint31_linear_613_2065" x1="31.1487" y1="15.195" x2="40.0009" y2="15.195" gradientUnits="userSpaceOnUse">
<stop stop-color="#9C9EA1"/>
<stop offset="0.9" stop-color="#9C9EA1"/>
</linearGradient>
<linearGradient id="paint32_linear_613_2065" x1="5.12972" y1="24.1434" x2="5.12972" y2="5.93866" gradientUnits="userSpaceOnUse">
<stop stop-color="#9C9EA1"/>
<stop offset="0.9" stop-color="#9C9EA1"/>
</linearGradient>
</defs>
</svg>
